<?xml version="1.0" encoding="UTF-8"?>
<svg xmlns="http://www.w3.org/2000/svg" xmlns:xlink="http://www.w3.org/1999/xlink" width="60px" height="60px" viewBox="0 0 60 60" version="1.1">
<g id="surface1">
<path style=" stroke:none;fill-rule:nonzero;fill:rgb(0%,0%,0%);fill-opacity:1;" d="M 42.101562 29.078125 C 44.125 29.101562 46.070312 28.304688 47.5 26.875 L 54.578125 19.796875 C 55.546875 18.828125 55.546875 17.25 54.578125 16.273438 C 54.109375 15.804688 53.46875 15.539062 52.796875 15.539062 C 52.132812 15.539062 51.492188 15.804688 51.023438 16.273438 L 43.875 23.328125 C 43.40625 23.796875 42.765625 24.0625 42.101562 24.0625 C 41.429688 24.0625 40.796875 23.796875 40.328125 23.328125 L 49.171875 14.5 C 50.15625 13.523438 50.15625 11.929688 49.171875 10.953125 C 48.195312 9.96875 46.601562 9.96875 45.625 10.953125 L 36.796875 19.796875 C 35.828125 18.828125 35.828125 17.25 36.796875 16.273438 L 43.875 9.203125 C 44.851562 8.21875 44.851562 6.632812 43.875 5.648438 C 42.898438 4.671875 41.304688 4.671875 40.328125 5.648438 L 33.25 12.726562 C 30.328125 15.65625 30.328125 20.398438 33.25 23.328125 L 30 26.546875 L 9.328125 5.796875 L 9.078125 5.648438 C 8.945312 5.539062 8.804688 5.445312 8.648438 5.375 L 8.203125 5.203125 L 7.898438 5 L 7.226562 5 C 6.625 5.054688 6.484375 5.132812 6.351562 5.226562 L 5.953125 5.476562 L 5.773438 5.476562 L 5.625 5.726562 C 5.515625 5.859375 5.429688 6 5.351562 6.148438 C 5.273438 6.304688 5.21875 6.460938 5.171875 6.625 C 5.171875 6.625 5.171875 6.796875 5.171875 6.898438 C 3.945312 15.476562 6.828125 24.125 12.953125 30.25 L 19.546875 36.828125 L 6.023438 50.328125 C 5.554688 50.796875 5.289062 51.429688 5.289062 52.101562 C 5.289062 52.765625 5.554688 53.40625 6.023438 53.875 C 6.5 54.34375 7.132812 54.601562 7.796875 54.601562 C 8.460938 54.601562 9.101562 54.34375 9.578125 53.875 L 24.75 38.921875 L 31.828125 31.851562 L 36.828125 26.851562 C 38.21875 28.257812 40.117188 29.0625 42.101562 29.078125 Z M 22.976562 33.625 L 16.398438 27.023438 C 12.796875 23.375 10.539062 18.601562 10 13.5 L 26.523438 30 Z M 38.578125 35.046875 C 37.59375 34.0625 36 34.054688 35.015625 35.039062 C 34.023438 36.015625 34.023438 37.609375 35 38.601562 L 50.75 54.351562 C 51.226562 54.78125 51.851562 55.015625 52.5 55 C 53.164062 55 53.804688 54.742188 54.273438 54.273438 C 54.75 53.804688 55.015625 53.164062 55.015625 52.5 C 55.015625 51.835938 54.75 51.195312 54.273438 50.726562 Z M 38.578125 35.046875 "/>
</g>
</svg>
